<mxfile host="app.diagrams.net" agent="Mozilla/5.0 (Windows NT 10.0; Win64; x64; rv:132.0) Gecko/20100101 Firefox/132.0" version="28.0.4">
  <diagram name="Page-1" id="a5uEFG-orOurIrKuIQjN">
    <mxGraphModel dx="988" dy="434" grid="1" gridSize="10" guides="1" tooltips="1" connect="1" arrows="1" fold="1" page="1" pageScale="1" pageWidth="850" pageHeight="1100" math="0" shadow="0">
      <root>
        <mxCell id="0" />
        <mxCell id="1" parent="0" />
        <mxCell id="s1HsbgG0FjZD671x4cHQ-7" style="edgeStyle=orthogonalEdgeStyle;rounded=0;orthogonalLoop=1;jettySize=auto;html=1;exitX=1;exitY=0.5;exitDx=0;exitDy=0;entryX=0;entryY=0.5;entryDx=0;entryDy=0;" edge="1" parent="1" source="s1HsbgG0FjZD671x4cHQ-1" target="s1HsbgG0FjZD671x4cHQ-6">
          <mxGeometry relative="1" as="geometry" />
        </mxCell>
        <mxCell id="s1HsbgG0FjZD671x4cHQ-1" value="Trend Tracker Agent " style="rounded=0;whiteSpace=wrap;html=1;" vertex="1" parent="1">
          <mxGeometry x="110" y="170" width="120" height="60" as="geometry" />
        </mxCell>
        <mxCell id="s1HsbgG0FjZD671x4cHQ-2" value="&lt;div&gt;identify super recent trending topics&lt;/div&gt;&lt;div&gt;from sites like twitter, IG, TikTok, Etc&amp;nbsp;&lt;/div&gt;&lt;div&gt;specifically related to dogs&lt;br&gt;&lt;/div&gt;" style="ellipse;shape=cloud;whiteSpace=wrap;html=1;" vertex="1" parent="1">
          <mxGeometry x="47.63" y="230" width="312.37" height="170" as="geometry" />
        </mxCell>
        <mxCell id="s1HsbgG0FjZD671x4cHQ-17" style="edgeStyle=orthogonalEdgeStyle;rounded=0;orthogonalLoop=1;jettySize=auto;html=1;exitX=0.5;exitY=1;exitDx=0;exitDy=0;" edge="1" parent="1" source="s1HsbgG0FjZD671x4cHQ-3" target="s1HsbgG0FjZD671x4cHQ-1">
          <mxGeometry relative="1" as="geometry" />
        </mxCell>
        <mxCell id="s1HsbgG0FjZD671x4cHQ-3" value="Fetch Data" style="rounded=0;whiteSpace=wrap;html=1;" vertex="1" parent="1">
          <mxGeometry x="9.999999999999993" y="50" width="120" height="60" as="geometry" />
        </mxCell>
        <mxCell id="s1HsbgG0FjZD671x4cHQ-18" style="edgeStyle=orthogonalEdgeStyle;rounded=0;orthogonalLoop=1;jettySize=auto;html=1;exitX=0.5;exitY=1;exitDx=0;exitDy=0;" edge="1" parent="1" source="s1HsbgG0FjZD671x4cHQ-4">
          <mxGeometry relative="1" as="geometry">
            <mxPoint x="180" y="180" as="targetPoint" />
          </mxGeometry>
        </mxCell>
        <mxCell id="s1HsbgG0FjZD671x4cHQ-4" value="Process Data" style="rounded=0;whiteSpace=wrap;html=1;" vertex="1" parent="1">
          <mxGeometry x="142.37" y="50" width="120" height="60" as="geometry" />
        </mxCell>
        <mxCell id="s1HsbgG0FjZD671x4cHQ-19" style="edgeStyle=orthogonalEdgeStyle;rounded=0;orthogonalLoop=1;jettySize=auto;html=1;exitX=0.25;exitY=1;exitDx=0;exitDy=0;entryX=0.75;entryY=0;entryDx=0;entryDy=0;" edge="1" parent="1" source="s1HsbgG0FjZD671x4cHQ-5" target="s1HsbgG0FjZD671x4cHQ-1">
          <mxGeometry relative="1" as="geometry" />
        </mxCell>
        <mxCell id="s1HsbgG0FjZD671x4cHQ-5" value="Extract Trends" style="rounded=0;whiteSpace=wrap;html=1;" vertex="1" parent="1">
          <mxGeometry x="270" y="50" width="120" height="60" as="geometry" />
        </mxCell>
        <mxCell id="s1HsbgG0FjZD671x4cHQ-10" style="edgeStyle=orthogonalEdgeStyle;rounded=0;orthogonalLoop=1;jettySize=auto;html=1;exitX=0.5;exitY=0;exitDx=0;exitDy=0;" edge="1" parent="1" source="s1HsbgG0FjZD671x4cHQ-6">
          <mxGeometry relative="1" as="geometry">
            <mxPoint x="390" y="169.75" as="targetPoint" />
          </mxGeometry>
        </mxCell>
        <mxCell id="s1HsbgG0FjZD671x4cHQ-14" style="edgeStyle=orthogonalEdgeStyle;rounded=0;orthogonalLoop=1;jettySize=auto;html=1;exitX=1;exitY=0.5;exitDx=0;exitDy=0;entryX=0;entryY=0.5;entryDx=0;entryDy=0;" edge="1" parent="1" source="s1HsbgG0FjZD671x4cHQ-6" target="s1HsbgG0FjZD671x4cHQ-8">
          <mxGeometry relative="1" as="geometry" />
        </mxCell>
        <mxCell id="s1HsbgG0FjZD671x4cHQ-6" value="Idea Generator " style="rounded=0;whiteSpace=wrap;html=1;" vertex="1" parent="1">
          <mxGeometry x="340" y="170" width="120" height="60" as="geometry" />
        </mxCell>
        <mxCell id="s1HsbgG0FjZD671x4cHQ-15" style="edgeStyle=orthogonalEdgeStyle;rounded=0;orthogonalLoop=1;jettySize=auto;html=1;exitX=0.5;exitY=1;exitDx=0;exitDy=0;" edge="1" parent="1" source="s1HsbgG0FjZD671x4cHQ-8" target="s1HsbgG0FjZD671x4cHQ-16">
          <mxGeometry relative="1" as="geometry">
            <mxPoint x="549.5" y="280" as="targetPoint" />
          </mxGeometry>
        </mxCell>
        <mxCell id="s1HsbgG0FjZD671x4cHQ-8" value="Script Writer" style="rounded=0;whiteSpace=wrap;html=1;" vertex="1" parent="1">
          <mxGeometry x="490" y="170" width="120" height="60" as="geometry" />
        </mxCell>
        <mxCell id="s1HsbgG0FjZD671x4cHQ-9" value="ChatGPT" style="ellipse;shape=cloud;whiteSpace=wrap;html=1;" vertex="1" parent="1">
          <mxGeometry x="400" y="40" width="200" height="100" as="geometry" />
        </mxCell>
        <mxCell id="s1HsbgG0FjZD671x4cHQ-11" value="" style="endArrow=classic;startArrow=classic;html=1;rounded=0;" edge="1" parent="1">
          <mxGeometry width="50" height="50" relative="1" as="geometry">
            <mxPoint x="390" y="170" as="sourcePoint" />
            <mxPoint x="440" y="120" as="targetPoint" />
          </mxGeometry>
        </mxCell>
        <mxCell id="s1HsbgG0FjZD671x4cHQ-13" value="" style="endArrow=classic;startArrow=classic;html=1;rounded=0;entryX=0.55;entryY=0.95;entryDx=0;entryDy=0;entryPerimeter=0;exitX=0.75;exitY=0;exitDx=0;exitDy=0;" edge="1" parent="1" source="s1HsbgG0FjZD671x4cHQ-8" target="s1HsbgG0FjZD671x4cHQ-9">
          <mxGeometry width="50" height="50" relative="1" as="geometry">
            <mxPoint x="510" y="330" as="sourcePoint" />
            <mxPoint x="560" y="280" as="targetPoint" />
          </mxGeometry>
        </mxCell>
        <mxCell id="s1HsbgG0FjZD671x4cHQ-16" value="Notify Us" style="rounded=0;whiteSpace=wrap;html=1;" vertex="1" parent="1">
          <mxGeometry x="489.5" y="250" width="120" height="60" as="geometry" />
        </mxCell>
      </root>
    </mxGraphModel>
  </diagram>
</mxfile>
